Coordinates
version=1
nRows=13
nColumns=34
inDegrees=yes

Units are S.I. units (second, meters, Newtons, ...)
If the header above contains a line with 'inDegrees', this indicates whether rotational values are in degrees (yes) or radians (no).

endheader
time	pelvis_tilt	pelvis_list	pelvis_rotation	pelvis_tx	pelvis_ty	pelvis_tz	hip_flexion_r	hip_adduction_r	hip_rotation_r	knee_angle_r	ankle_angle_r	subtalar_angle_r	mtp_angle_r	hip_flexion_l	hip_adduction_l	hip_rotation_l	knee_angle_l	ankle_angle_l	subtalar_angle_l	mtp_angle_l	lumbar_extension	lumbar_bending	lumbar_rotation	arm_flex_r	arm_add_r	arm_rot_r	elbow_flex_r	pro_sup_r	arm_flex_l	arm_add_l	arm_rot_l	elbow_flex_l	pro_sup_l
      0.00000000	      8.88101246	    -11.02040102	    -13.81717766	      2.71520109	      0.98933037	      0.84846143	     26.15628123	     10.25776338	     -7.47545169	     37.19302655	      4.98902373	      1.61603042	      0.00000000	     19.53870122	      8.85395287	     -2.68102869	     23.01141161	     -0.63669900	      4.75098889	      0.00000000	    -23.50247268	     -2.73577164	     13.26795903	     16.89017850	      5.98630792	     26.78336509	     43.25006159	    106.95055886	     13.30924116	     13.16062988	     -0.80945595	     24.01332578	    103.01442924
      0.01666670	      8.75736612	    -11.09328666	    -13.96396264	      2.71481740	      0.98938770	      0.84840241	     26.13415102	     10.35878312	     -7.51733867	     36.93791042	      4.94523138	      1.82557050	      0.00000000	     19.37402639	      8.73720810	     -2.72898855	     22.46717599	     -0.54505551	      4.86789212	      0.00000000	    -23.45953854	     -2.64359460	     13.27676901	     16.89833288	      6.03491561	     26.94781658	     43.11780498	    106.96515878	     13.36613458	     13.08947843	     -0.72694281	     23.88312638	    103.04501842
      0.03333330	      8.47016325	    -11.55411347	    -13.84396685	      2.71435587	      0.98908952	      0.84765665	     26.18815312	     10.91746685	     -7.53282920	     36.44549936	      4.62749782	      1.47994396	      0.00000000	     19.04155391	      8.54384297	     -1.79698160	     21.39314643	     -0.05777241	      3.70782633	      0.00000000	    -23.55607795	     -1.91622737	     13.03766505	     17.28124722	      5.94695966	     27.65696679	     42.63178228	    107.08983122	     13.44183470	     12.97956420	      0.71404809	     23.73512839	    103.39450999
      0.05000000	      8.24292541	    -11.47259398	    -13.85360358	      2.71231721	      0.98865251	      0.84777665	     26.42959725	     10.88789159	     -7.66737701	     36.17561651	      4.56814734	      1.49038290	      0.00000000	     19.21589099	      8.59439625	     -1.89112723	     20.86051989	      0.09706429	      3.58578568	      0.00000000	    -23.70383856	     -1.95323105	     13.06076680	     17.78106220	      5.99137461	     27.60355321	     42.77066419	    107.09203273	     13.80242630	     12.88645807	      0.73369850	     23.87669144	    103.40293628
      0.06666670	      7.51037008	    -10.15540911	    -14.54903260	      2.70896203	      0.98715876	      0.84820076	     27.93420377	      9.97180848	     -6.91857581	     36.60854321	      4.00487319	      1.46288046	      0.00000000	     19.98770236	      9.99617996	     -1.33528275	     19.35305002	     -1.97730275	     -0.03556444	      0.00000000	    -23.08146927	     -3.55246346	     13.03651281	     18.50477864	      5.94710226	     28.40570429	     42.40585510	    107.33717497	     14.17894338	     12.35841578	      1.69891353	     24.23708540	    103.73455489
      0.08333330	      6.57964193	     -8.88349748	    -14.61312194	      2.70535793	      0.98429429	      0.84759192	     29.69266694	      8.66649921	     -7.36371245	     37.09889729	      4.42988431	      2.17509768	      0.00000000	     21.41774106	     11.42500393	     -0.03919874	     18.72030341	     -3.96060139	     -3.21971634	      0.00000000	    -22.60904406	     -4.67589341	     12.47641104	     19.58872771	      6.10114498	     29.16850827	     41.90049557	    107.57606407	     14.84629180	     11.72270267	      2.80849433	     24.22721108	    104.14625626
      0.10000000	      6.06157257	     -8.15931897	    -14.81576646	      2.70166390	      0.98313503	      0.84692611	     30.53790581	      8.01451295	     -7.44909467	     36.91576382	      4.55620054	      2.79840423	      0.00000000	     21.67005856	     12.23336140	      1.18986063	     17.06426145	     -5.70026426	     -5.07818976	      0.00000000	    -22.58557575	     -5.37069924	     12.19594610	     20.85069137	      5.87762794	     30.60065453	     41.24148086	    107.88651575	     15.59852125	     11.20333406	      4.60219575	     24.10714856	    104.76930872
      0.11666670	      5.33233400	     -7.51545771	    -15.38676664	      2.69935171	      0.98204513	      0.84728253	     31.18935014	      7.99871388	     -6.70946740	     36.11289956	      4.20581077	      2.16752832	      0.00000000	     22.27218595	     12.72433563	      1.99357996	     15.91068710	     -6.98395339	     -6.71099615	      0.00000000	    -22.00179421	     -5.90150156	     12.78243054	     21.57273818	      5.68990956	     30.94569624	     40.56038371	    108.02368043	     15.91514619	     10.95721272	      5.78030986	     24.25863436	    105.18680913
      0.13333330	      4.74844111	     -6.98389519	    -16.08605466	      2.69822781	      0.98169285	      0.84829674	     31.32466249	      8.19889752	     -5.81823990	     34.93016627	      4.23430989	      1.79534729	      0.00000000	     22.62091404	     12.91865170	      1.97347509	     14.79948040	     -7.77872213	     -7.35290556	      0.00000000	    -21.45484055	     -6.49691492	     13.28199881	     21.92290375	      5.77905735	     31.11801927	     39.67862590	    108.13305762	     16.07589413	     10.68803244	      6.36078940	     23.94728022	    105.42269879
      0.15000000	      4.17800543	     -6.72168561	    -16.97441122	      2.69797704	      0.98147328	      0.84923400	     30.95195908	      8.77397007	     -4.62916487	     33.13304837	      4.47472046	      1.62701755	      0.00000000	     22.92179927	     12.79223323	      1.89576948	     13.90012032	     -8.32934302	     -8.13613797	      0.00000000	    -20.85142027	     -6.81249459	     13.92488278	     22.11823629	      5.69090798	     31.36035014	     38.83820603	    108.28591181	     15.81644064	     10.51648300	      7.30357442	     23.89859820	    105.73032397
      0.16666670	      3.77756014	     -6.24035647	    -17.69013981	      2.69800172	      0.98074907	      0.84995522	     30.70612705	      9.02533875	     -3.36439896	     31.81882712	      4.80655597	      1.09542971	      0.00000000	     23.28162678	     12.95977369	      1.59267521	     13.31452459	     -8.73455754	     -8.77909453	      0.00000000	    -20.34538374	     -7.34914132	     14.21832284	     22.44385438	      5.69733224	     31.59333701	     37.83093472	    108.53194844	     15.58688776	     10.24110518	      8.68644887	     23.67283705	    106.14084483
      0.18333330	      3.42439958	     -5.59945115	    -18.43797564	      2.69776693	      0.97992787	      0.85128356	     30.64296436	      8.99935932	     -2.56217743	     30.81703302	      5.04272080	      1.16519185	      0.00000000	     23.72561839	     13.18835604	      0.89741244	     12.84359253	     -8.97067353	     -9.06706306	      0.00000000	    -19.84841625	     -8.19957868	     14.29125763	     22.76947876	      5.77139019	     32.13446218	     37.06784697	    109.05032831	     15.53199046	      9.65448058	     10.33331065	     23.14263405	    106.61172263
      0.20000000	      3.22446423	     -5.32679163	    -19.08413932	      2.69800789	      0.97964595	      0.85209705	     30.27011062	      8.91823467	     -2.57437955	     29.77140137	      5.51227821	      2.56662287	      0.00000000	     24.06023179	     13.16550414	      0.42193471	     12.81042177	     -8.87492829	     -9.42244347	      0.00000000	    -19.45312685	     -8.62323502	     14.29914426	     23.08785309	      6.08500317	     32.34659749	     35.93484979	    109.69881047	     15.23582230	      9.14541419	     12.05714931	     22.73639749	    107.10484457
